# xmcd
# 
# Track frame offsets:
#     150
#     12025
#     24301
#     38968
#     52091
#     63646
#     76408
#     89624
#     103000
#     115033
#     127490
#     139074
#     152401
#     163590
#     176924
#     189766
#     202800
#     216215
# 
# Disc length: 3023
# 
# Revision: 3
# Processed by: cddbd v1.5.2PL0 Copyright (c) Steve Scherf et al.
# Submitted via: fre:ac v1.0.17
# 
DISCID=f60bcd12
DTITLE=country music 1940-1948 - changhin times cd1
DYEAR=0
DGENRE=country
TTITLE0=you are my sunshine - jimmie davis
TTITLE1=draftee blues - johnny bond
TTITLE2=modern cannonball - denver darling
TTITLE3=last page of mein kampf - texas jim robertson
TTITLE4=stars and stripes of iwo jima - sons of the pioneers
TTITLE5=back in the saddle again - gene autry
TTITLE6=three miles south of cash, arkansas - carolina cotton
TTITLE7=moon over montana - jimmy wakely
TTITLE8=three fiddle rag - spade cooley
TTITLE9=texas boogie - paul howard
TTITLE10=louisiana blues - luke wills
TTITLE11=red wagon - buddy jones
TTITLE12=frankie and johnnie - t-texas tyler
TTITLE13=suspicion - tex williams
TTITLE14=lazy john - johnny lee wills
TTITLE15=jole blond - roy acuff
TTITLE16=she left me standing on the mountain - delmore brothers
TTITLE17=eight more miles to louisville - grandpa jones
EXTD=
EXTT0=
EXTT1=
EXTT2=
EXTT3=
EXTT4=
EXTT5=
EXTT6=
EXTT7=
EXTT8=
EXTT9=
EXTT10=
EXTT11=
EXTT12=
EXTT13=
EXTT14=
EXTT15=
EXTT16=
EXTT17=
PLAYORDER=
